<svg width="32" height="32" viewBox="0 0 32 32" fill="none" xmlns="http://www.w3.org/2000/svg">
<path d="M31.448 15.1067L1.448 0.106721C1.138 -0.0472792 0.772 -0.0332792 0.476 0.150721C0.18 0.332721 0 0.654721 0 1.00072V13.0007H6V10.0007C6 9.65472 6.18 9.33272 6.474 9.15072C6.77 8.96672 7.136 8.95272 7.446 9.10672L19.446 15.1067C19.786 15.2767 20 15.6227 20 16.0007C20 16.3787 19.786 16.7247 19.448 16.8947L7.448 22.8947C7.306 22.9647 7.154 23.0007 7 23.0007C6.818 23.0007 6.634 22.9507 6.474 22.8527C6.18 22.6687 6 22.3467 6 22.0007V19.0007H0V31.0007C0 31.3467 0.18 31.6687 0.474 31.8527C0.634 31.9507 0.818 32.0007 1 32.0007C1.154 32.0007 1.306 31.9647 1.448 31.8947L31.448 16.8947C31.786 16.7247 32 16.3787 32 16.0007C32 15.6227 31.786 15.2767 31.448 15.1067Z" fill="url(#paint0_linear)"/>
<defs>
<linearGradient id="paint0_linear" x1="16" y1="0.0010376" x2="16" y2="32.0007" gradientUnits="userSpaceOnUse">
<stop stop-color="#1EF6F9"/>
<stop offset="1" stop-color="#FCD11F"/>
</linearGradient>
</defs>
</svg>
